# xmcd
#
# Track frame offsets:
# 150
# 16233
# 34342
# 57738
# 81367
# 98516
# 114824
# 135744
# 148789
#
# Disc length: 2141 seconds
#
# Revision: 0
# Processed by: cddbd v1.5.2PL0 Copyright (c) Steve Scherf et al.
# Submitted via: TinyPlayer 2.8
#
DISCID=76085b09
DTITLE=Johnny Van Zant Band - The Last of the Wild Ones [Remastered]
DYEAR=2012
DGENRE=Southern Rock
TTITLE0=Good Girls Turning Bad
TTITLE1=It's You
TTITLE2=Last of the Wild Ones
TTITLE3=Still Hold On
TTITLE4=Can't Live Without Your Love
TTITLE5=Danger Zone
TTITLE6=Together Forever
TTITLE7=Inside Looking Out
TTITLE8=The One and Only
EXTD=Location:  - UPC: 8275650592560 - Catalogue number: CANDY139 - Label: Rock Candy Records - ASIN: B008B0WOQ4 - Release Date: 2012 07 23 - Discogs: a2389609 - MUSICBRAINZ_ALBUMID:  - AMG: MN0000251276 - 
EXTT0=
EXTT1=
EXTT2=
EXTT3=
EXTT4=
EXTT5=
EXTT6=
EXTT7=
EXTT8=
PLAYORDER=
